<svg width="216" height="110" viewBox="0 0 216 110" fill="none" xmlns="http://www.w3.org/2000/svg">
<path d="M99.125 86C99.375 86 99.5833 86.2083 99.75 86.625C100 86.9583 100.125 87.3333 100.125 87.75C100.042 88.4167 99.6667 89.2083 99 90.125C98.3333 91.0417 97.5833 91.5 96.75 91.5C96.0833 90.8333 95.9167 90.0833 96.25 89.25C96.6667 88.3333 97.2083 87.7083 97.875 87.375C98.0417 87.0417 98.1667 86.7083 98.25 86.375C98.4167 86.0417 98.7083 85.9167 99.125 86ZM22.375 4.5C22.125 4.41667 21.875 4.29167 21.625 4.125C21.375 3.875 21.1667 3.70833 21 3.625C20.9167 3.45833 20.8333 3.29167 20.75 3.125C20.75 2.875 20.75 2.54167 20.75 2.125C21.5833 1.79167 22.2917 1.58333 22.875 1.5C23.4583 1.41667 24.0833 1.29167 24.75 1.125C25.0833 1.04167 25.4167 1.04167 25.75 1.125C26.0833 1.125 26.4167 1.08333 26.75 1C27.8333 0.833333 28.5833 0.958333 29 1.375C29 1.95833 28.8333 2.375 28.5 2.625C28.25 2.875 27.9167 3.08333 27.5 3.25C27.0833 3.33333 26.5833 3.41667 26 3.5C25.5 3.58333 25 3.70833 24.5 3.875C24.0833 3.95833 23.7083 4.125 23.375 4.375C23.0417 4.54167 22.7083 4.58333 22.375 4.5ZM2.875 16.125C1.79167 13.9583 1.79167 12.2917 2.875 11.125C4.04167 9.95833 5.20833 9 6.375 8.25C6.54167 7.83333 6.70833 7.58333 6.875 7.5C7.125 7.33333 7.375 7.125 7.625 6.875C7.95833 6.625 8.25 6.375 8.5 6.125C8.75 5.875 9 5.66667 9.25 5.5C9.66667 5.33333 10.0833 5.29167 10.5 5.375C10.9167 5.45833 11.3333 5.41667 11.75 5.25C12.0833 5.08333 12.3333 4.95833 12.5 4.875C12.6667 4.70833 12.9167 4.54167 13.25 4.375C13.9167 3.625 14.7083 3.08333 15.625 2.75C15.7917 2.58333 16 2.41667 16.25 2.25C16.5 2 16.7917 1.83333 17.125 1.75C17.7083 1.75 18.2083 1.875 18.625 2.125C19.125 2.375 19.4167 2.75 19.5 3.25C19.6667 4.16667 19.375 4.83333 18.625 5.25C18.2917 5.41667 17.9583 5.45833 17.625 5.375C17.2917 5.29167 16.9583 5.33333 16.625 5.5C16.2917 5.66667 15.9583 5.875 15.625 6.125C15.375 6.29167 15.0417 6.45833 14.625 6.625C14.2917 6.79167 13.9583 6.91667 13.625 7C13.375 7.08333 13.0833 7.20833 12.75 7.375C12.3333 7.70833 11.875 8 11.375 8.25C10.9583 8.5 10.5417 8.79167 10.125 9.125C9.70833 9.375 9.33333 9.66667 9 10C8.75 10.3333 8.375 10.5833 7.875 10.75C7.625 11.0833 7.33333 11.3333 7 11.5C6.66667 11.6667 6.375 11.9167 6.125 12.25C5.45833 12.8333 4.91667 13.5 4.5 14.25C4.08333 14.9167 3.54167 15.5417 2.875 16.125ZM84.875 99.5C82.7083 100.583 80.5 101.625 78.25 102.625C76.1667 102.875 74.125 103.333 72.125 104C70.2083 104.667 68.2917 105.083 66.375 105.25C65.2917 105.75 64.0833 105.958 62.75 105.875C61.5 105.875 60.2083 105.958 58.875 106.125C58.625 106.125 58.375 106.125 58.125 106.125C57.875 106.208 57.5833 106.167 57.25 106C56.5 106.083 55.75 106.125 55 106.125C54.25 106.125 53.5 106.125 52.75 106.125C52.4167 106.125 52.125 106.083 51.875 106C51.625 106 51.2917 105.958 50.875 105.875C50.625 105.875 50.375 105.917 50.125 106C49.9583 106.083 49.75 106.125 49.5 106.125C49.0833 106.208 48.6667 106.208 48.25 106.125C47.8333 106.042 47.4167 106 47 106C46.4167 106 45.7917 106.042 45.125 106.125C44.4583 106.208 43.8333 106.292 43.25 106.375C41.75 106.042 40.625 105.875 39.875 105.875C39.125 105.875 38.4167 105.792 37.75 105.625C37.0833 105.458 36.4167 105.208 35.75 104.875C35.0833 104.625 34.375 104.375 33.625 104.125C32.4583 103.708 31.7083 103.333 31.375 103C31.0417 102.667 30.6667 102.333 30.25 102C29.75 101.667 29.2083 101.333 28.625 101C28.125 100.75 27.625 100.458 27.125 100.125C26.2083 99.9583 25.25 99.8333 24.25 99.75C23.3333 99.5833 22.4167 99.5417 21.5 99.625C21.0833 99.625 20.7083 99.6667 20.375 99.75C20.125 99.8333 19.8333 99.9167 19.5 100C18.25 100 17.125 99.7083 16.125 99.125C15.2083 98.5417 14.2917 98.0417 13.375 97.625C11.4583 97.0417 10.0417 96.5 9.125 96C8.20833 95.5 7.29167 95.0417 6.375 94.625C5.875 94.375 5.5 94.0417 5.25 93.625C5.41667 92.7917 5.5 92 5.5 91.25C5.5 90.4167 5.75 89.75 6.25 89.25C6.83333 89 7.41667 88.6667 8 88.25C8.41667 88.0833 8.83333 87.7917 9.25 87.375C9.75 86.875 10.0833 86.4583 10.25 86.125C10.4167 85.5417 10.4583 84.9167 10.375 84.25C10.375 83.5833 10.4583 82.9167 10.625 82.25C10.7917 81.8333 11 81.5 11.25 81.25C11.5833 80.9167 11.6667 80.5417 11.5 80.125C11.75 79.7917 12 79.5 12.25 79.25C12.5 78.9167 12.8333 78.6667 13.25 78.5C14.0833 78.5 14.8333 78.625 15.5 78.875C16.1667 79.0417 16.7917 79.2917 17.375 79.625C17.9583 79.875 18.5417 80.125 19.125 80.375C19.7917 80.625 20.5 80.7917 21.25 80.875C22.25 81.4583 23.3333 81.9583 24.5 82.375C25.6667 82.7917 26.875 83.2083 28.125 83.625C28.7083 83.7917 29.2917 84 29.875 84.25C30.4583 84.4167 30.9583 84.5833 31.375 84.75C31.7083 84.8333 32 84.875 32.25 84.875C32.5833 84.7917 32.9167 84.75 33.25 84.75C33.8333 84.9167 34.4167 85.0417 35 85.125C35.6667 85.2083 36.3333 85.25 37 85.25C37.4167 85.25 38.0417 85.1667 38.875 85C39.7917 85 40.4583 84.9583 40.875 84.875C41.0417 84.7917 41.2083 84.7083 41.375 84.625C41.625 84.4583 41.875 84.2917 42.125 84.125C42.9583 83.9583 43.5417 83.8333 43.875 83.75C44.5417 83.3333 45.0833 82.7917 45.5 82.125C46 81.375 46.4583 80.6667 46.875 80C46.7917 79.5833 46.75 79.2083 46.75 78.875C46.8333 78.5417 46.875 78.25 46.875 78C46.7083 77.5833 46.5 77.1667 46.25 76.75C46.0833 76.25 45.8333 75.7917 45.5 75.375C45 74.625 44.375 74 43.625 73.5C42.9583 72.9167 42.3333 72.1667 41.75 71.25C41.5833 71.0833 41.4583 70.875 41.375 70.625C41.375 70.375 41.2917 70.125 41.125 69.875C40.875 69.4583 40.5417 69.0833 40.125 68.75C39.7083 68.4167 39.3333 68.0417 39 67.625C38.4167 67.625 37.9167 67.5417 37.5 67.375C37.1667 67.125 36.6667 67.0417 36 67.125C35.1667 66.7083 34.5417 66.1667 34.125 65.5C33.375 65.0833 32.7083 64.625 32.125 64.125C31.625 63.625 31.0417 63.125 30.375 62.625C29.7083 62.2083 29.0417 61.7917 28.375 61.375C27.7083 60.875 27 60.4167 26.25 60C25.6667 59.3333 25 58.75 24.25 58.25C23.5833 57.75 22.9583 57.2083 22.375 56.625C21.4583 56.2083 20.6667 55.625 20 54.875C19.3333 54.125 18.5833 53.5 17.75 53C17.5 52.8333 17.2083 52.7083 16.875 52.625C16.625 52.4583 16.3333 52.2917 16 52.125C15.0833 51.2917 14.25 50.7083 13.5 50.375C12.8333 49.9583 12.25 49.5417 11.75 49.125C11.5833 48.9583 11.4167 48.7917 11.25 48.625C11.1667 48.4583 11 48.2917 10.75 48.125C9.83333 47.375 9.375 46.7083 9.375 46.125C9.45833 45.5417 9.29167 45.0417 8.875 44.625C8.375 44.2083 7.66667 43.9583 6.75 43.875C5.83333 43.7083 5.16667 43.3333 4.75 42.75C4.5 42.3333 4.29167 41.9167 4.125 41.5C3.95833 41.0833 3.75 40.7083 3.5 40.375C3.08333 38.7083 2.66667 37 2.25 35.25C1.91667 33.5 1.75 31.7083 1.75 29.875C1.75 29.125 1.83333 28.4167 2 27.75C2.16667 27.0833 2.25 26.4167 2.25 25.75C2.41667 25.3333 2.54167 24.9583 2.625 24.625C2.79167 24.2083 3 23.7917 3.25 23.375C3.91667 22.2917 4.29167 21.4583 4.375 20.875C4.54167 20.2917 4.79167 19.7917 5.125 19.375C5.375 18.9583 5.70833 18.5417 6.125 18.125C6.54167 17.625 6.91667 17.1667 7.25 16.75C7.66667 16.3333 8.125 15.875 8.625 15.375C9.125 14.875 9.625 14.4167 10.125 14C10.5417 13.5833 10.9583 13.25 11.375 13C11.7917 12.6667 12.2083 12.3333 12.625 12C12.875 11.8333 13.125 11.7083 13.375 11.625C13.7083 11.4583 14.0417 11.2917 14.375 11.125C14.9583 10.875 15.5417 10.625 16.125 10.375C16.7083 10.0417 17.375 9.75 18.125 9.5C18.7083 9.33333 19.1667 9.16667 19.5 9C19.9167 8.83333 20.4583 8.66667 21.125 8.5C21.625 8.41667 22.1667 8.29167 22.75 8.125C23.4167 7.875 24.0833 7.66667 24.75 7.5C25.4167 7.33333 26.0417 7.20833 26.625 7.125C27.2083 6.95833 27.7917 6.70833 28.375 6.375C28.5417 6.45833 28.7917 6.5 29.125 6.5C29.4583 6.41667 29.75 6.45833 30 6.625C30.9167 6.125 31.875 5.95833 32.875 6.125C33.9583 6.29167 35.0417 6.125 36.125 5.625C36.4583 5.79167 36.75 5.83333 37 5.75C37.25 5.58333 37.5417 5.54167 37.875 5.625C38.125 5.70833 38.3333 5.83333 38.5 6C38.75 6.16667 38.9583 6.29167 39.125 6.375C39.4583 6.45833 39.8333 6.54167 40.25 6.625C40.6667 6.625 41.0417 6.54167 41.375 6.375C41.625 6.20833 41.8333 6.04167 42 5.875C42.25 5.70833 42.4583 5.54167 42.625 5.375C43.4583 4.95833 44.5833 4.79167 46 4.875C47.4167 4.95833 48.7083 4.95833 49.875 4.875C50.2917 4.875 50.7917 4.875 51.375 4.875C52.0417 4.79167 52.5833 4.79167 53 4.875C53.4167 4.95833 53.875 5.08333 54.375 5.25C54.875 5.33333 55.375 5.41667 55.875 5.5C56.7083 5.66667 57.4167 5.79167 58 5.875C58.5833 5.875 59.1667 6 59.75 6.25C60.3333 6.58333 60.75 6.75 61 6.75C61.25 6.75 61.5 6.79167 61.75 6.875C62.1667 7.04167 62.5 7.29167 62.75 7.625C63.0833 7.875 63.4583 8 63.875 8C64.2083 8 64.5 7.91667 64.75 7.75C65.0833 7.5 65.4167 7.33333 65.75 7.25C66.6667 7.16667 67.25 7.04167 67.5 6.875C67.8333 6.70833 68.1667 6.58333 68.5 6.5C69.0833 6.66667 69.7917 6.79167 70.625 6.875C71.4583 6.875 72.1667 7.08333 72.75 7.5C73.4167 7.33333 74.0417 7.41667 74.625 7.75C75.2083 8 75.8333 8.25 76.5 8.5C77 8.66667 77.5 8.79167 78 8.875C78.5833 8.95833 79.0833 9.16667 79.5 9.5C80.9167 10.0833 82.1667 10.5417 83.25 10.875C84.3333 11.2083 85.25 11.7083 86 12.375C86.4167 12.5417 86.7917 12.7083 87.125 12.875C87.5417 12.9583 88.0417 13.125 88.625 13.375C89.2083 13.5417 89.75 13.875 90.25 14.375C90.8333 14.875 91.3333 15.3333 91.75 15.75C92.1667 16.25 92.5417 16.7917 92.875 17.375C93.2917 17.9583 93.75 18.5417 94.25 19.125C94.0833 20.375 93.75 21.5417 93.25 22.625C93.0833 23.0417 92.7917 23.5 92.375 24C91.9583 24.4167 91.5833 24.8333 91.25 25.25L89.375 27.75C88.7917 28.1667 88.375 28.5 88.125 28.75C87.875 28.9167 87.4167 29.125 86.75 29.375C86.4167 29.5417 86.0833 29.7083 85.75 29.875C85.4167 29.9583 85.0417 29.9583 84.625 29.875C83.9583 29.7917 83.1667 29.5 82.25 29C81.4167 28.4167 80.6667 27.9167 80 27.5C79.0833 27.0833 78.5417 26.8333 78.375 26.75C78.2083 26.5833 78 26.4583 77.75 26.375C76.5833 26.0417 75.4583 25.7083 74.375 25.375C73.2917 25.0417 72.1667 24.7083 71 24.375C70 24.0417 68.875 23.625 67.625 23.125C66.4583 22.625 65.25 22.4167 64 22.5C63.5 22.5 62.9583 22.5 62.375 22.5C61.875 22.4167 61.3333 22.4583 60.75 22.625C59.8333 22.9583 59.2083 23.125 58.875 23.125C58.625 23.0417 58.375 23.0417 58.125 23.125C57.875 23.2083 57.625 23.375 57.375 23.625C57.125 23.7917 56.875 23.9167 56.625 24C55.125 24.4167 54.0417 25.0417 53.375 25.875C52.7083 26.625 52.1667 27.3333 51.75 28C51.5 29.1667 51.375 30.25 51.375 31.25C51.4583 32.25 51.7083 33.1667 52.125 34C52.5417 34.8333 53.0833 35.5417 53.75 36.125C54.4167 36.7083 54.875 37.4167 55.125 38.25C55.125 39.0833 55.375 39.7083 55.875 40.125C56.375 40.5417 56.9583 40.875 57.625 41.125C58.2917 41.4583 58.9583 41.6667 59.625 41.75C60.375 41.75 61.0833 41.875 61.75 42.125C62.4167 42.625 62.7917 42.875 62.875 42.875C62.9583 42.875 63.0417 42.9167 63.125 43C63.7917 43.5 64.2083 43.7917 64.375 43.875C64.625 43.875 64.875 43.9583 65.125 44.125C66.4583 45.0417 67.4167 45.6667 68 46C68.5833 46.3333 69.1667 46.7083 69.75 47.125C71.8333 48.4583 73.7083 49.875 75.375 51.375C76.0417 52.0417 76.5 52.4167 76.75 52.5C77 52.5833 77.2083 52.7083 77.375 52.875C77.7917 53.0417 78.0833 53.2917 78.25 53.625C78.5 53.9583 78.8333 54.1667 79.25 54.25C79.5833 54.9167 79.9583 55.5417 80.375 56.125C80.875 56.625 81.125 57.2917 81.125 58.125C81.375 58.375 81.5833 58.625 81.75 58.875C81.9167 59.0417 82.1667 59.1667 82.5 59.25C83.8333 59.4167 84.7917 59.875 85.375 60.625C86.0417 61.2917 86.5833 61.875 87 62.375C87.4167 62.7917 87.8333 63.25 88.25 63.75C88.6667 64.1667 89.0833 64.5417 89.5 64.875C89.8333 65.9583 90.3333 66.8333 91 67.5C91.6667 68.1667 92.125 69.0833 92.375 70.25C92.625 71.1667 92.625 72.0833 92.375 73C92.2083 73.9167 92.2083 74.7917 92.375 75.625C92.375 76.4583 92.8333 77.1667 93.75 77.75C95.3333 79 96.0833 80.375 96 81.875C96 83.2917 95.8333 84.6667 95.5 86C94.5833 87.8333 93.5417 89.5417 92.375 91.125C91.2083 92.625 90.0417 94.2083 88.875 95.875C88.0417 96.375 87.3333 97 86.75 97.75C86.25 98.4167 85.625 99 84.875 99.5ZM81.75 88.125C81.4167 88.4583 81.0417 88.875 80.625 89.375C80.2917 89.7917 80.1667 90.125 80.25 90.375C80.25 90.625 80.4167 90.9167 80.75 91.25C81.0833 91.5 81.3333 91.6667 81.5 91.75C82.4167 92.1667 83.25 92.2083 84 91.875C84.75 91.5417 85.3333 91.1667 85.75 90.75C86.4167 89.75 87.0417 88.7083 87.625 87.625C88.2917 86.5417 88.625 85.1667 88.625 83.5C88.4583 83.4167 88.2917 83.25 88.125 83C87.9583 82.75 87.7917 82.5833 87.625 82.5C87.2083 82.3333 86.7083 82.4167 86.125 82.75C85.5417 83.0833 85.125 83.375 84.875 83.625C84.375 84.625 84.0417 85.2083 83.875 85.375C83.7083 85.4583 83.5417 85.625 83.375 85.875C83.0417 86.125 82.75 86.4583 82.5 86.875C82.25 87.2917 82 87.7083 81.75 88.125ZM80.375 15.625C80.2917 15.9583 80.4167 16.2917 80.75 16.625C81.1667 16.9583 81.5417 17.25 81.875 17.5C82.2917 17.9167 82.6667 18.25 83 18.5C83.4167 18.6667 83.7917 18.875 84.125 19.125C84.625 19.4583 84.875 19.8333 84.875 20.25C84.9583 20.5833 85.2083 20.9583 85.625 21.375C85.7917 21.5417 86.0833 21.7083 86.5 21.875C87 22.0417 87.4583 22.0833 87.875 22C88.7917 21.75 89.125 21.1667 88.875 20.25C88.625 19.25 88.25 18.4167 87.75 17.75C87.3333 17.4167 86.875 17.1667 86.375 17C85.9583 16.8333 85.5417 16.625 85.125 16.375C84.125 15.5417 83.125 15.0833 82.125 15C81.125 14.8333 80.5417 15.0417 80.375 15.625ZM72.125 13.25C71.9583 14 72.0833 14.5417 72.5 14.875C72.9167 15.2083 73.375 15.375 73.875 15.375C74.4583 15.2917 75 15.0833 75.5 14.75C76 14.3333 76.25 13.875 76.25 13.375C76 12.875 75.375 12.625 74.375 12.625C73.375 12.625 72.625 12.8333 72.125 13.25ZM10 35.375C10.5 35.2917 11 34.9583 11.5 34.375C12.0833 33.7083 12.3333 33.0417 12.25 32.375C12.25 32.2083 12.1667 32.0417 12 31.875C11.8333 31.625 11.6667 31.375 11.5 31.125C11 29.875 10.875 28.5 11.125 27C11.375 25.5 11.5833 24.0417 11.75 22.625C11.4167 22.2917 11.0417 22.1667 10.625 22.25C10.2917 22.25 9.91667 22.375 9.5 22.625C9.16667 22.7917 8.83333 23.0417 8.5 23.375C8.25 23.625 8.04167 23.8333 7.875 24C7.70833 24.1667 7.54167 24.5 7.375 25C7.29167 25.4167 7.16667 25.8333 7 26.25C6.83333 26.6667 6.75 27.0833 6.75 27.5C6.83333 27.9167 6.875 28.375 6.875 28.875C6.79167 29.5417 6.83333 30.125 7 30.625C7.16667 31.0417 7.25 31.5417 7.25 32.125C7.25 33.0417 7.58333 33.8333 8.25 34.5C9 35.0833 9.58333 35.375 10 35.375ZM19.25 90.625C19.4167 89.5417 19.375 88.7917 19.125 88.375C18.875 87.9583 18.6667 87.5833 18.5 87.25C17.5 87.1667 16.7917 87.4167 16.375 88C16.0417 88.5 15.75 89.0833 15.5 89.75C15.3333 90.1667 15.0833 90.625 14.75 91.125C14.5 91.5417 14.4167 91.9167 14.5 92.25C14.5833 92.5 14.7083 92.6667 14.875 92.75C15.125 92.8333 15.375 92.9583 15.625 93.125C17.2083 93.875 18.375 93.7917 19.125 92.875C19.2917 92.625 19.3333 92.3333 19.25 92C19.1667 91.5833 19.1667 91.125 19.25 90.625ZM76.625 97C76.875 96.5833 77.25 96.2917 77.75 96.125C78.3333 95.9583 78.5417 95.5417 78.375 94.875C77.7917 94.625 77.25 94.5417 76.75 94.625C76.3333 94.7083 75.9167 94.875 75.5 95.125C75.0833 95.375 74.6667 95.6667 74.25 96C73.8333 96.25 73.4167 96.4167 73 96.5C72.8333 96.9167 72.5833 97.2083 72.25 97.375C71.9167 97.5417 71.75 97.8333 71.75 98.25C72.1667 98.5 72.5417 98.7083 72.875 98.875C73.2083 99.0417 73.5417 99.2083 73.875 99.375C74.2917 99.2083 74.6667 99.0417 75 98.875C75.4167 98.7083 75.7917 98.4167 76.125 98L76.625 97ZM96.75 16.75C96.5833 16.5 96.2917 16.25 95.875 16C95.5417 15.75 95.2083 15.5 94.875 15.25C94.5417 15 94.3333 14.75 94.25 14.5C94.1667 14.25 94.3333 13.9583 94.75 13.625C95.3333 13.4583 95.75 13.5417 96 13.875C96.3333 14.125 96.7083 14.375 97.125 14.625C97.5417 14.9583 97.9583 15.2083 98.375 15.375C98.7917 15.4583 99.1667 15.7083 99.5 16.125C100.333 17.625 100.375 19.125 99.625 20.625C98.875 22.0417 98.1667 23.3333 97.5 24.5C97.0833 24.5 96.625 24.4583 96.125 24.375C95.625 24.2083 95.375 23.8333 95.375 23.25C95.2917 22.75 95.4167 22.3333 95.75 22C96.1667 21.6667 96.4583 21.2083 96.625 20.625C96.875 20.125 97.0417 19.4583 97.125 18.625C97.2917 17.7917 97.1667 17.1667 96.75 16.75ZM71.625 29.875C70.625 28.875 69.625 28.1667 68.625 27.75C67.7083 27.25 66.6667 27.0417 65.5 27.125C65.1667 27.125 64.8333 27.2083 64.5 27.375C64.1667 27.5417 63.7917 27.6667 63.375 27.75C62.9583 27.8333 62.5417 28 62.125 28.25C61.7917 28.4167 61.4167 28.625 61 28.875C60.8333 29.125 60.625 29.375 60.375 29.625C60.125 29.7917 59.9583 30 59.875 30.25C59.7917 30.5833 59.7917 30.9167 59.875 31.25C60.0417 31.5 60.125 31.7917 60.125 32.125C60.125 32.4583 60.0417 32.75 59.875 33C59.7083 33.1667 59.5417 33.4167 59.375 33.75C58.875 33.75 58.4167 33.7917 58 33.875C57.6667 33.875 57.2917 33.7917 56.875 33.625C56.2917 33.375 55.9167 32.9167 55.75 32.25C55.5833 31.5 55.5417 30.75 55.625 30C55.7083 29.25 55.875 28.5417 56.125 27.875C56.4583 27.2083 56.8333 26.75 57.25 26.5C57.5833 26.5833 57.8333 26.5417 58 26.375C58.25 26.2083 58.5 26.0417 58.75 25.875C59.0833 25.7917 59.4167 25.7917 59.75 25.875C60.0833 25.875 60.4167 25.8333 60.75 25.75C61.3333 25.6667 61.875 25.5 62.375 25.25C62.875 25 63.375 25.0833 63.875 25.5C64.125 25.4167 64.3333 25.3333 64.5 25.25C64.75 25.1667 65.0833 25.1667 65.5 25.25C66.5833 25.5833 67.2083 25.7083 67.375 25.625C67.5417 25.5417 67.7083 25.5 67.875 25.5C68.125 25.5 68.4167 25.6667 68.75 26C69.0833 26.25 69.4583 26.4167 69.875 26.5C70.4583 26.6667 70.9583 26.8333 71.375 27C71.875 27.0833 72.4583 27.2917 73.125 27.625C73.5417 27.7917 73.9583 27.9583 74.375 28.125C74.875 28.2083 75.2083 28.3333 75.375 28.5C75.7917 28.9167 76 29.4583 76 30.125C76 30.7083 75.7917 31.1667 75.375 31.5C74.4583 31.4167 73.7083 31.25 73.125 31C72.625 30.6667 72.125 30.2917 71.625 29.875ZM82.75 32.25C83 33 83.0833 33.4167 83 33.5C82.9167 33.5 82.9583 33.5833 83.125 33.75C82.7917 33.8333 82.5417 33.9583 82.375 34.125C82.2917 34.2083 82.125 34.3333 81.875 34.5C81.2083 34.25 80.625 33.875 80.125 33.375C79.625 32.7917 79.5417 32.0833 79.875 31.25C80.5417 31.0833 81.0833 31.1667 81.5 31.5C81.9167 31.75 82.3333 32 82.75 32.25ZM11.25 75.625C10.8333 75.875 10.4167 76.3333 10 77C9.66667 77.5833 9.45833 78.0833 9.375 78.5C9.29167 79 9.25 79.625 9.25 80.375C9.25 81.0417 9.20833 81.7083 9.125 82.375C9.125 82.9583 9.04167 83.5417 8.875 84.125C8.70833 84.625 8.375 85 7.875 85.25C7.70833 85.25 7.45833 85.3333 7.125 85.5C6.79167 85.5833 6.54167 85.625 6.375 85.625C5.54167 85.625 4.875 85.5 4.375 85.25C3.875 84.9167 3.625 84.5417 3.625 84.125C3.625 83.7917 3.70833 83.5 3.875 83.25C4.04167 83 4.20833 82.75 4.375 82.5C4.54167 82.0833 4.625 81.75 4.625 81.5C4.625 81.25 4.70833 81 4.875 80.75C5.04167 80.3333 5.25 80 5.5 79.75C5.83333 79.4167 6.125 79.0417 6.375 78.625C6.625 77.9583 6.91667 77.5417 7.25 77.375C7.5 76.5417 7.83333 75.7083 8.25 74.875C8.75 73.9583 9.25 73.1667 9.75 72.5C10.25 72.25 10.75 72.2917 11.25 72.625C11.9167 72.2917 12.5833 72.2917 13.25 72.625C13.9167 72.875 14.4167 73.1667 14.75 73.5C15.3333 73.5 15.8333 73.6667 16.25 74C16.6667 74.3333 17.1667 74.5833 17.75 74.75C18.1667 74.9167 18.625 75 19.125 75C19.625 75 20.0833 75.1667 20.5 75.5C20.9167 76.1667 20.9167 76.875 20.5 77.625C19.6667 77.625 19.0417 77.5833 18.625 77.5C18.2083 77.4167 17.7917 77.2917 17.375 77.125C16.875 76.7917 16.375 76.5417 15.875 76.375C15.4583 76.125 15 75.9167 14.5 75.75C13.9167 75.6667 13.5 75.5417 13.25 75.375C13.0833 75.2083 12.9167 75.125 12.75 75.125C12.5 75.0417 12.2083 75.0833 11.875 75.25C11.5417 75.4167 11.3333 75.5417 11.25 75.625ZM25.625 79.25C25.2917 79.6667 24.875 79.8333 24.375 79.75C23.875 79.6667 23.4167 79.4583 23 79.125C22.6667 78.7917 22.4167 78.4167 22.25 78C22.1667 77.5833 22.2917 77.2083 22.625 76.875C24.2083 76.7917 25.2083 77.5833 25.625 79.25ZM9 98.875C8.33333 99.625 8 100.042 8 100.125C8 100.208 7.95833 100.292 7.875 100.375C6.54167 100.125 5.45833 100 4.625 100C3.875 100 3.125 99.7917 2.375 99.375C1.95833 99.0417 1.54167 98.6667 1.125 98.25C0.791667 97.75 0.541667 97.4167 0.375 97.25C0.208333 96.5 0.166667 95.9167 0.25 95.5C0.416667 95.0833 0.625 94.7083 0.875 94.375C1.125 93.9583 1.375 93.7083 1.625 93.625C1.875 93.4583 2.125 93.5833 2.375 94C2.20833 94.3333 2.16667 94.625 2.25 94.875C2.41667 95.0417 2.5 95.2917 2.5 95.625C2.91667 95.9583 3.33333 96.25 3.75 96.5C4.16667 96.6667 4.54167 96.9583 4.875 97.375C5.29167 97.2917 5.66667 97.375 6 97.625C6.33333 97.875 6.66667 98.0417 7 98.125C7.5 98.125 7.83333 98.25 8 98.5C8.25 98.75 8.58333 98.875 9 98.875ZM93.125 93.625C93.625 93.375 94.125 93.375 94.625 93.625C95.125 93.875 95.5833 94.0833 96 94.25C96.6667 95.1667 96.75 96 96.25 96.75C95.8333 97.5 95.3333 98.0833 94.75 98.5C94.4167 98.6667 94.0417 98.7917 93.625 98.875C93.2917 98.875 92.9583 98.9583 92.625 99.125C92.0417 99.4583 91.5833 99.875 91.25 100.375C91 100.875 90.5833 101.208 90 101.375C89.8333 101.875 89.5417 102.25 89.125 102.5C88.7083 102.75 88.2917 103.083 87.875 103.5C87.7083 103.75 87.5833 103.958 87.5 104.125C87.5 104.375 87.4167 104.583 87.25 104.75C86.3333 105.667 85.0417 106.417 83.375 107C81.7083 107.667 80.0417 108.208 78.375 108.625C77.7083 108.792 77 108.917 76.25 109C75.5 109.167 74.8333 109.25 74.25 109.25C73.5833 109.25 72.75 109.167 71.75 109C70.8333 108.833 70.375 108.375 70.375 107.625C70.375 107.292 70.5417 107.042 70.875 106.875C71.2917 106.708 71.75 106.583 72.25 106.5C72.75 106.5 73.25 106.458 73.75 106.375C74.25 106.375 74.6667 106.375 75 106.375C76 106.208 76.9583 105.958 77.875 105.625C78.7917 105.292 79.7083 105.042 80.625 104.875C80.9583 104.792 81.25 104.75 81.5 104.75C81.8333 104.833 82.1667 104.792 82.5 104.625C82.8333 104.542 83.0833 104.417 83.25 104.25C83.4167 104.083 83.625 103.917 83.875 103.75C84.5417 103.333 85 102.958 85.25 102.625C85.5833 102.375 85.875 101.917 86.125 101.25C87.2083 100.667 88.1667 99.9583 89 99.125C89.8333 98.2083 90.625 97.25 91.375 96.25C91.9583 95.3333 92.2917 94.7083 92.375 94.375C92.5417 94.0417 92.7917 93.7917 93.125 93.625ZM199.5 66.75C198.333 66.8333 197.167 66.75 196 66.5C194.833 66.1667 193.667 66 192.5 66C191.667 65.9167 190.833 65.9167 190 66C189.167 66.0833 188.333 66.125 187.5 66.125C186.583 66.125 185.708 66.0833 184.875 66C184.125 65.9167 183.375 65.9167 182.625 66C180.042 66.25 177.375 66.3333 174.625 66.25C171.958 66.0833 169.417 66.0417 167 66.125C165.333 66.125 163.75 66.1667 162.25 66.25C160.833 66.25 159.333 66.1667 157.75 66C158.25 67.1667 158.458 68.5833 158.375 70.25C158.292 71.8333 158.208 73.4583 158.125 75.125C158.125 75.5417 158.125 76 158.125 76.5C158.208 76.9167 158.25 77.3333 158.25 77.75C157.833 79.75 157.667 81.5417 157.75 83.125C157.917 84.7083 158 86.25 158 87.75C158 89.4167 158 91.0417 158 92.625C158 94.125 157.792 95.5833 157.375 97C157.292 97.4167 157.25 97.8333 157.25 98.25C157.25 98.5833 157.167 98.8333 157 99C156.833 99.1667 156.417 99.375 155.75 99.625C155.167 99.875 154.667 100.042 154.25 100.125C153.083 100.125 152.292 100.208 151.875 100.375C151.458 100.542 151.042 100.625 150.625 100.625C150.375 100.625 150.125 100.583 149.875 100.5C149.625 100.417 149.333 100.375 149 100.375C148.25 100.292 147.5 100.292 146.75 100.375C146 100.458 145.167 100.542 144.25 100.625C143.417 100.625 142.542 100.542 141.625 100.375C140.792 100.208 139.917 100.083 139 100C138.417 100 137.875 100 137.375 100C136.875 99.9167 136.292 99.875 135.625 99.875C134.708 99.7083 133.792 99.625 132.875 99.625C131.958 99.625 131.083 99.5417 130.25 99.375C129 99.125 128.042 99.0417 127.375 99.125C126.792 99.2083 126.167 99.25 125.5 99.25C124.583 99.25 123.625 99.2083 122.625 99.125C121.625 98.9583 120.792 98.625 120.125 98.125C119.958 97.9583 119.792 97.7917 119.625 97.625C119.458 97.375 119.208 97.25 118.875 97.25C118.708 96.6667 118.25 96.2083 117.5 95.875C116.75 95.4583 116.333 94.9167 116.25 94.25C116.083 93.8333 116.042 93.375 116.125 92.875C116.292 92.2917 116.375 91.75 116.375 91.25V87.875C116.375 87.2083 116.375 86.625 116.375 86.125C116.375 85.5417 116.333 85 116.25 84.5C116.083 82.5 116.375 81.125 117.125 80.375C117.292 80.2083 117.5 80.0833 117.75 80C118 79.9167 118.167 79.75 118.25 79.5C118.583 78.9167 118.667 78.4167 118.5 78C118.333 77.5 118.083 77.0833 117.75 76.75C117.417 76.3333 117.042 75.9583 116.625 75.625C116.292 75.2917 116.083 74.9583 116 74.625C116 74.375 116.042 74.125 116.125 73.875C116.208 73.5417 116.25 73.2917 116.25 73.125C116.333 72.4583 116.333 71.8333 116.25 71.25C116.25 70.5833 116.25 69.9583 116.25 69.375C116.583 67.9583 116.667 66.7083 116.5 65.625C116.417 64.5417 116.583 63.4167 117 62.25C117.167 61.6667 117.708 61 118.625 60.25C118.875 60 119.125 59.7083 119.375 59.375C119.708 58.9583 119.917 58.625 120 58.375C120.083 58.125 120.042 57.6667 119.875 57C119.792 56.25 119.667 55.6667 119.5 55.25C119.417 54.9167 119.25 54.625 119 54.375C118.833 54.125 118.625 53.8333 118.375 53.5C117.792 52.8333 117.417 52.25 117.25 51.75C117.167 50.4167 117.125 49 117.125 47.5C117.208 45.9167 117.333 44.375 117.5 42.875C117.5 41.2083 117.5 39.3333 117.5 37.25C117.583 35.1667 117.625 33.0833 117.625 31C117.625 30.5833 117.667 30.1667 117.75 29.75C117.833 29.3333 117.875 28.875 117.875 28.375C118.042 27.4583 118 26.5833 117.75 25.75C117.5 24.9167 117.458 24.0417 117.625 23.125C117.708 22.7083 117.75 22.25 117.75 21.75C117.833 21.1667 117.958 20.6667 118.125 20.25C118.125 19.75 118.083 19.25 118 18.75C117.917 18.1667 117.958 17.6667 118.125 17.25C118.208 17 118.333 16.75 118.5 16.5C118.667 16.25 118.833 16 119 15.75C119.417 15.0833 119.792 14.5833 120.125 14.25C120.542 13.9167 121.083 13.5417 121.75 13.125C122.083 12.2917 122.333 11.4167 122.5 10.5C122.75 9.58333 123.125 8.79167 123.625 8.125C123.958 7.95833 124.25 7.79167 124.5 7.625C124.833 7.375 125.083 7.04167 125.25 6.625C125.833 6.45833 126.458 6.45833 127.125 6.625C127.875 6.70833 128.542 6.83333 129.125 7C130.208 6.91667 131.458 6.875 132.875 6.875C134.292 6.79167 135.75 6.79167 137.25 6.875C138.75 6.95833 140.25 7.08333 141.75 7.25C143.25 7.41667 144.625 7.625 145.875 7.875C148.458 7.375 151.042 7.33333 153.625 7.75C156.292 8.16667 159.125 8.33333 162.125 8.25C162.625 8.25 163.125 8.20833 163.625 8.125C164.125 7.95833 164.625 7.875 165.125 7.875C165.542 7.875 166 7.91667 166.5 8C167 8.08333 167.542 8.125 168.125 8.125C168.792 8.20833 169.5 8.20833 170.25 8.125C171.083 8.04167 171.917 8.08333 172.75 8.25C173.167 8.41667 173.5 8.66667 173.75 9C174 9.33333 174.333 9.58333 174.75 9.75C175.417 10.0833 176.25 10.3333 177.25 10.5C178.333 10.5833 179.333 10.5417 180.25 10.375C180.917 10.2917 181.458 10.0417 181.875 9.625C182.375 9.20833 182.917 8.95833 183.5 8.875C184 8.79167 184.5 8.79167 185 8.875C185.583 8.875 186.125 8.79167 186.625 8.625C187.292 8.54167 187.875 8.54167 188.375 8.625C188.958 8.625 189.583 8.625 190.25 8.625C192.333 8.70833 194.5 8.75 196.75 8.75C199.083 8.75 201.292 8.83333 203.375 9C203.792 9.08333 204.167 9.16667 204.5 9.25C204.833 9.33333 205.208 9.45833 205.625 9.625C206.292 10.125 207.042 10.6667 207.875 11.25C208.792 11.75 209.375 12.5417 209.625 13.625C209.792 14.2083 209.75 14.7917 209.5 15.375C209.333 15.875 209.25 16.4583 209.25 17.125C209.167 17.9583 209.083 18.7917 209 19.625C209 20.4583 209 21.25 209 22C209 22.5833 209.042 23.1667 209.125 23.75C209.292 24.3333 209.333 24.875 209.25 25.375C209.25 26.0417 209.042 26.625 208.625 27.125C208.292 27.5417 207.958 27.8333 207.625 28C207.208 28 206.792 28.0833 206.375 28.25C206.042 28.4167 205.667 28.5417 205.25 28.625C204.5 28.7083 203.708 28.7083 202.875 28.625C202.125 28.5417 201.375 28.4583 200.625 28.375C200.458 28.375 200.25 28.4167 200 28.5C199.75 28.5 199.5 28.5 199.25 28.5C198.083 28.4167 196.917 28.375 195.75 28.375C194.667 28.375 193.458 28.3333 192.125 28.25C191.625 28.1667 191.125 28.0833 190.625 28C190.125 27.9167 189.625 27.875 189.125 27.875C188.708 27.875 188.292 27.9167 187.875 28C187.458 28.0833 187.042 28.0833 186.625 28C185.958 28 185.333 27.9167 184.75 27.75C184.167 27.5833 183.542 27.625 182.875 27.875C181.458 27.625 180.042 27.5 178.625 27.5C177.292 27.4167 175.917 27.4583 174.5 27.625C174.083 27.7083 173.625 27.7917 173.125 27.875C172.708 27.875 172.292 27.75 171.875 27.5C171.458 27.4167 171.125 27.2083 170.875 26.875C170.625 26.5417 170.375 26.2083 170.125 25.875C169.875 25.5417 169.583 25.2917 169.25 25.125C169 24.875 168.667 24.7917 168.25 24.875C167.917 24.9583 167.708 25.125 167.625 25.375C167.542 25.5417 167.417 25.75 167.25 26C166.75 26.8333 165.792 27.25 164.375 27.25C163.708 27.25 163.042 27.25 162.375 27.25C161.792 27.25 161.292 27.4583 160.875 27.875C160.542 28.625 160.417 29.375 160.5 30.125C160.667 30.875 160.667 31.5833 160.5 32.25C160.5 32.75 160.417 33.25 160.25 33.75C160.167 34.25 160.125 34.75 160.125 35.25C160.042 35.6667 160.042 36.0833 160.125 36.5C160.208 36.9167 160.25 37.3333 160.25 37.75C160.167 38.4167 160.042 39.0833 159.875 39.75C159.792 40.4167 159.75 41.0833 159.75 41.75C159.667 42.5833 159.625 43.4583 159.625 44.375C159.625 45.2917 159.625 46.1667 159.625 47C161.542 47.3333 163.5 47.4167 165.5 47.25C167.5 47.0833 169.458 47.2083 171.375 47.625C172.042 48.2917 172.833 48.8333 173.75 49.25C174.667 49.6667 175.708 49.75 176.875 49.5C177.292 49.3333 177.667 49.1667 178 49C178.417 48.75 178.833 48.5417 179.25 48.375C179.917 48.2083 180.708 48.125 181.625 48.125C182.458 48.0417 183.167 48.0417 183.75 48.125C184.417 48.2083 185.083 48.25 185.75 48.25C187 48.25 187.833 48.25 188.25 48.25C188.667 48.1667 189.083 48.125 189.5 48.125C190.417 48.125 191.375 48.1667 192.375 48.25C193.375 48.25 194.333 48.2917 195.25 48.375C195.667 48.375 196.083 48.4167 196.5 48.5C196.917 48.5 197.333 48.5417 197.75 48.625C198.833 48.7083 199.833 48.75 200.75 48.75C201.75 48.6667 202.667 48.7917 203.5 49.125C203.833 49.2917 204.208 49.6667 204.625 50.25C205.125 50.75 205.458 51.2083 205.625 51.625C205.792 52.0417 205.792 52.5 205.625 53C205.542 53.5 205.5 54.0833 205.5 54.75C205.5 54.9167 205.542 55.2083 205.625 55.625C205.708 55.9583 205.75 56.25 205.75 56.5C205.583 57.0833 205.167 57.5 204.5 57.75C203.917 58 203.625 58.5 203.625 59.25C203.625 59.5833 203.708 59.9167 203.875 60.25C204.125 60.5833 204.333 60.9583 204.5 61.375C204.75 62.625 204.625 63.625 204.125 64.375C203.625 65.125 202.958 65.75 202.125 66.25C201.708 66.25 201.25 66.3333 200.75 66.5C200.333 66.6667 199.917 66.75 199.5 66.75ZM199.125 13.5C198.125 13.8333 197.875 14.3333 198.375 15C198.958 15.6667 199.625 16.0417 200.375 16.125C201.125 16.2083 201.833 16 202.5 15.5C203.167 14.9167 203.292 14.3333 202.875 13.75C202.625 13.6667 202.375 13.5417 202.125 13.375C201.958 13.2083 201.75 13.0417 201.5 12.875C201.167 13.2083 200.792 13.375 200.375 13.375C199.958 13.2917 199.542 13.3333 199.125 13.5ZM125 73.25C125.417 72.8333 125.583 72.2917 125.5 71.625C125.5 70.9583 125.542 70.375 125.625 69.875C125.792 68.875 125.875 67.8333 125.875 66.75C125.875 65.6667 125.625 64.7083 125.125 63.875C124.542 63.875 124.083 64.0417 123.75 64.375C123.5 64.625 123.292 65 123.125 65.5C122.958 65.9167 122.833 66.4167 122.75 67C122.75 67.5833 122.75 68.125 122.75 68.625C122.583 69.5417 122.5 70.4583 122.5 71.375C122.583 72.2083 122.958 72.7917 123.625 73.125C124.208 72.7083 124.5 72.625 124.5 72.875C124.583 73.125 124.75 73.25 125 73.25ZM130.375 22.25C130.458 20.6667 130.625 19.5 130.875 18.75C131.208 17.9167 131.292 17.1667 131.125 16.5C131.042 16.0833 130.833 15.4583 130.5 14.625C130.25 13.7917 129.917 13.4167 129.5 13.5C128.917 13.6667 128.583 14.0417 128.5 14.625C128.417 15.125 128.292 15.5833 128.125 16C127.958 16.3333 127.75 16.7083 127.5 17.125C127.25 17.4583 127.042 17.7917 126.875 18.125C126.708 18.4583 126.5 18.7083 126.25 18.875C126 19.0417 125.792 19.25 125.625 19.5C125.292 20.25 125.042 20.7083 124.875 20.875C124.708 21.0417 124.542 21.2083 124.375 21.375C124.125 21.875 123.958 22.6667 123.875 23.75C123.875 24.75 123.958 25.5 124.125 26C124.208 26.4167 124.417 26.75 124.75 27C125.083 27.1667 125.458 27.25 125.875 27.25C126.375 27.25 126.833 27.2083 127.25 27.125C127.667 26.9583 128.042 26.7917 128.375 26.625C128.708 26.0417 129.083 25.4583 129.5 24.875C130 24.2083 130.292 23.3333 130.375 22.25ZM135.875 17.25C136.292 17.1667 136.583 16.9583 136.75 16.625C137 16.2083 137.083 15.7917 137 15.375C137 14.9583 136.917 14.5833 136.75 14.25C136.583 13.8333 136.333 13.5417 136 13.375C135.75 13.875 135.5 14.5417 135.25 15.375C135 16.2083 135.208 16.8333 135.875 17.25ZM148.25 89.25C148.917 89.6667 149.5 89.7083 150 89.375C150.583 88.9583 151.083 88.5833 151.5 88.25C152.333 86.6667 152.708 85.3333 152.625 84.25C152.542 83.1667 152.583 82.0417 152.75 80.875C152.917 80.2083 153.042 79.625 153.125 79.125C153.208 78.5417 153.208 78.0417 153.125 77.625C151.958 77.5417 151.125 77.7083 150.625 78.125C150.208 78.5417 149.792 79.0833 149.375 79.75C148.958 80.4167 148.792 81.2083 148.875 82.125C149.042 83.0417 149.042 83.875 148.875 84.625C148.792 85.125 148.625 85.625 148.375 86.125C148.208 86.5417 148.042 86.9583 147.875 87.375C148.042 87.7917 148.083 88.1667 148 88.5C148 88.8333 148.083 89.0833 148.25 89.25ZM152.125 96C152.542 95.75 152.708 95.4167 152.625 95C152.625 94.5 152.417 94.0833 152 93.75C151.167 93.3333 150.542 93.5 150.125 94.25C149.792 95 149.917 95.7083 150.5 96.375C150.833 96.375 151.083 96.3333 151.25 96.25C151.5 96.0833 151.792 96 152.125 96ZM193.625 57.375C194.792 57.5417 195.875 57.375 196.875 56.875C197.958 56.375 198.583 55.4167 198.75 54C198.25 53.5 197.5 53.2917 196.5 53.375C195.583 53.375 194.75 53.5833 194 54C193.333 54.3333 192.875 54.8333 192.625 55.5C192.375 56.0833 192.708 56.7083 193.625 57.375ZM120.375 6.5C120.458 7.41667 120.333 8.20833 120 8.875C119.75 9.54167 119.417 10.125 119 10.625C118.583 11.125 118.083 11.625 117.5 12.125C117 12.5417 116.542 13 116.125 13.5C115.292 14.4167 114.875 15.4167 114.875 16.5C114.958 17.5833 114.917 18.7083 114.75 19.875C114.75 20.125 114.708 20.375 114.625 20.625C114.542 20.875 114.458 21.0833 114.375 21.25V23.125C114.292 23.7083 114.167 24.25 114 24.75C113.917 25.1667 113.958 25.5833 114.125 26C114.208 26.3333 114.333 26.6667 114.5 27C114.667 27.25 114.792 27.5833 114.875 28C114.958 28.6667 114.875 29.4167 114.625 30.25C114.458 31 114.417 31.7083 114.5 32.375C114.083 32.7083 113.583 32.8333 113 32.75C112.417 32.6667 112.208 32.2083 112.375 31.375C112.208 31.125 111.958 30.9583 111.625 30.875C111.292 30.7083 111.083 30.4583 111 30.125L111.25 28.625C111.25 28.375 111.292 28.125 111.375 27.875C111.542 27.5417 111.625 27.2917 111.625 27.125C111.625 26.7083 111.583 26.3333 111.5 26C111.417 25.5833 111.375 25.2083 111.375 24.875C111.375 24.7083 111.417 24.5 111.5 24.25C111.667 23.9167 111.75 23.5833 111.75 23.25C111.75 22.9167 111.75 22.6667 111.75 22.5C111.75 22.3333 111.792 22.0417 111.875 21.625C111.958 21.125 112 20.625 112 20.125C112 19.5417 112 18.9167 112 18.25C112.083 17.1667 112.167 16.125 112.25 15.125C112.333 14.125 112.375 13.0833 112.375 12C112.458 11.8333 112.5 11.625 112.5 11.375C112.5 11.0417 112.583 10.7917 112.75 10.625C112.833 10.2083 113.042 9.875 113.375 9.625C113.708 9.375 113.833 9.04167 113.75 8.625C114.417 8.375 114.875 7.91667 115.125 7.25C115.542 7.16667 115.958 7 116.375 6.75C116.875 6.41667 117.375 6.16667 117.875 6C118.375 5.75 118.833 5.66667 119.25 5.75C119.667 5.75 120.042 6 120.375 6.5ZM215.25 16.5C215.25 16.8333 215.25 17.1667 215.25 17.5C215.333 17.75 215.333 18.0833 215.25 18.5C215.083 20.0833 214.708 21.5417 214.125 22.875C213.875 23.4583 213.417 23.75 212.75 23.75C212.167 23.75 211.833 23.4167 211.75 22.75C211.667 22.25 211.708 21.7083 211.875 21.125C212.125 20.5417 212.25 20 212.25 19.5C212.333 18.1667 212.417 17.2083 212.5 16.625C212.667 15.9583 212.708 15.2083 212.625 14.375C212.625 14.125 212.583 13.7917 212.5 13.375C212.5 12.9583 212.417 12.6667 212.25 12.5C212.167 12.3333 212 12.1667 211.75 12C211.583 11.75 211.417 11.5417 211.25 11.375C211.167 11.375 211.042 11.2917 210.875 11.125C210.708 10.9583 210.583 10.7917 210.5 10.625C210.417 10.4583 210.375 10.3333 210.375 10.25C210.375 10.0833 210.542 9.95833 210.875 9.875C211.208 9.875 211.5 10 211.75 10.25C212.083 10.5 212.458 10.7083 212.875 10.875C213.292 11.0417 213.708 11.125 214.125 11.125C214.625 11.125 214.958 11.2917 215.125 11.625C215.458 12.125 215.542 12.9167 215.375 14C215.292 15 215.25 15.8333 215.25 16.5ZM162.75 38.25C162.333 37.5833 162.208 36.8333 162.375 36C162.625 35.0833 162.75 34.1667 162.75 33.25C162.75 32.6667 162.833 32.0833 163 31.5C163.167 30.9167 163.5 30.5 164 30.25C164.25 30.3333 164.458 30.25 164.625 30C164.875 29.75 165.125 29.625 165.375 29.625C165.625 29.5417 165.917 29.5833 166.25 29.75C166.583 29.8333 166.917 29.8333 167.25 29.75C168.083 29.6667 168.875 29.5417 169.625 29.375C170.458 29.2083 171.333 29.125 172.25 29.125C172.417 29.2917 172.583 29.5417 172.75 29.875C173 30.125 173.125 30.4167 173.125 30.75C173.042 31.4167 172.667 31.8333 172 32C171.417 32.1667 170.792 32.2083 170.125 32.125C169.792 32.0417 169.5 31.9583 169.25 31.875C169.083 31.7083 168.875 31.6667 168.625 31.75C168.208 31.8333 167.708 32 167.125 32.25C166.542 32.5 166.083 32.75 165.75 33C165.5 33.3333 165.333 33.75 165.25 34.25C165.167 34.6667 165.083 35.125 165 35.625C164.917 36.125 164.792 36.5417 164.625 36.875C164.458 37.2083 164.167 37.4167 163.75 37.5L162.75 38.25ZM175 31.625C174.917 31.0417 175.125 30.625 175.625 30.375C176.208 30.0417 176.792 29.8333 177.375 29.75C177.958 30.1667 178.083 30.7917 177.75 31.625C177.5 32.375 177.042 32.7083 176.375 32.625C176.125 32.625 175.833 32.5 175.5 32.25C175.25 32 175.083 31.7917 175 31.625ZM206.875 64.75C207.958 65.3333 208.458 66.2083 208.375 67.375C208.292 68.4583 208.167 69.4583 208 70.375C207.75 71.2083 207.25 71.7083 206.5 71.875C205.75 72.0417 205 72.2083 204.25 72.375C202.667 72.2917 201.375 72.125 200.375 71.875C199.458 71.625 198.542 71.5833 197.625 71.75C196.958 71.8333 196.125 71.9167 195.125 72C194.208 72 193.417 71.6667 192.75 71C192.583 70.1667 192.75 69.625 193.25 69.375C193.75 69.0417 194.25 68.7917 194.75 68.625C195.417 68.875 196.083 69.125 196.75 69.375C197.5 69.625 198.333 69.7083 199.25 69.625C199.5 69.5417 199.75 69.4583 200 69.375C200.25 69.2917 200.542 69.25 200.875 69.25C201.458 69.25 202.083 69.2917 202.75 69.375C203.5 69.375 204.083 69.25 204.5 69C205 68.6667 205.417 68 205.75 67C206.083 65.9167 206.458 65.1667 206.875 64.75ZM160.375 90.125C160.792 89.625 161.25 89.5 161.75 89.75C162.25 89.9167 162.583 90.2083 162.75 90.625C162.75 91.375 162.708 92.0833 162.625 92.75C162.542 93.3333 162.333 93.8333 162 94.25C161.417 94.1667 161.042 94 160.875 93.75C160.708 93.4167 160.583 93.0417 160.5 92.625C160.5 92.2083 160.5 91.7917 160.5 91.375C160.5 90.9583 160.458 90.5417 160.375 90.125ZM160 96.125C160.417 95.7083 160.833 95.7083 161.25 96.125C161.75 96.4583 162 96.7917 162 97.125C162.083 98.0417 162 99.25 161.75 100.75C161.5 102.167 161.292 103.333 161.125 104.25C160.125 104.75 159.042 105.167 157.875 105.5C156.792 105.833 155.583 105.958 154.25 105.875C153.75 105.792 153.25 105.708 152.75 105.625C152.333 105.542 151.875 105.458 151.375 105.375C151.042 105.375 150.667 105.375 150.25 105.375C149.917 105.375 149.667 105.25 149.5 105C149.583 104.667 149.625 104.375 149.625 104.125C149.708 103.958 149.667 103.667 149.5 103.25C150.167 102.917 150.792 102.833 151.375 103C152.042 103.25 152.708 103.375 153.375 103.375C154.208 103.375 155.167 103.083 156.25 102.5C157.333 101.917 158.125 101.375 158.625 100.875C159.375 99.7917 159.708 98.9167 159.625 98.25C159.542 97.5 159.667 96.7917 160 96.125Z" fill="#3C2A21"/>
</svg>
