<svg width="442" height="442" viewBox="0 0 442 442" fill="none" xmlns="http://www.w3.org/2000/svg">
<path fill-rule="evenodd" clip-rule="evenodd" d="M200.654 93.5365C227.894 94.256 230.494 92.22 257.733 92.8804C258.111 129.764 259.318 166.587 258.442 203.511C258.077 218.892 255.521 234.853 256.185 250.205C256.203 250.622 284.635 250.182 293.115 250.883C270.587 288.241 248.806 326.231 224.434 362.48C201.532 328.808 178.287 287.125 159.043 250.578C167.252 248.316 189.767 248.829 198.446 249.076C200.373 236.281 199.376 223.76 199.798 210.844C200.987 174.445 202.044 129.915 200.654 93.5365Z" stroke="#ffffff" stroke-width="4.58579" stroke-miterlimit="1.5" stroke-linecap="round" stroke-linejoin="round"/>
<path d="M239.774 338.851C223.197 328.034 204.588 316.236 188.623 304.54" stroke="#ffffff" stroke-width="4.58579" stroke-miterlimit="1.5" stroke-linecap="round" stroke-linejoin="round"/>
<path d="M253.595 316.747C224.788 299.479 192.236 280.246 164.622 261.093" stroke="#ffffff" stroke-width="4.58579" stroke-miterlimit="1.5" stroke-linecap="round" stroke-linejoin="round"/>
<path d="M266.628 294.977C242.637 280.76 216.783 263.98 193.214 249.064" stroke="#ffffff" stroke-width="4.58579" stroke-miterlimit="1.5" stroke-linecap="round" stroke-linejoin="round"/>
<path d="M256.227 250.231C238.677 241.32 217.44 229.848 199.708 221.344" stroke="#ffffff" stroke-width="4.58579" stroke-miterlimit="1.5" stroke-linecap="round" stroke-linejoin="round"/>
<path d="M257.484 219.009C239.782 207.329 218.883 197.453 200.474 186.861" stroke="#ffffff" stroke-width="4.58579" stroke-miterlimit="1.5" stroke-linecap="round" stroke-linejoin="round"/>
<path d="M258.67 188.011C241.353 175.907 219.124 165.497 201.194 154.192" stroke="#ffffff" stroke-width="4.58579" stroke-miterlimit="1.5" stroke-linecap="round" stroke-linejoin="round"/>
<path d="M258.615 158.783C240.415 148.65 219.637 137.641 201.308 127.727" stroke="#ffffff" stroke-width="4.58579" stroke-miterlimit="1.5" stroke-linecap="round" stroke-linejoin="round"/>
<path d="M258.278 130.168C240.573 118.927 219.951 108.323 200.881 99.4688" stroke="#ffffff" stroke-width="4.58579" stroke-miterlimit="1.5" stroke-linecap="round" stroke-linejoin="round"/>
</svg>
